<?xml version="1.0" standalone="no"?><!DOCTYPE svg PUBLIC "-//W3C//DTD SVG 1.1//EN" "http://www.w3.org/Graphics/SVG/1.1/DTD/svg11.dtd"><svg t="1750775174363" class="icon" viewBox="0 0 1024 1024" version="1.1" xmlns="http://www.w3.org/2000/svg" p-id="5283" xmlns:xlink="http://www.w3.org/1999/xlink" width="256" height="256"><path d="M398.10844445 966.08711111c-98.87288889-11.60533333-174.19377778-64.62577778-241.664-133.68888889-31.17511111-31.97155555-6.71288889-60.87111111 3.5271111-86.69866667 6.94044445-17.52177778 25.6-6.82666667 29.35466667 12.288 3.86844445 19.56977778-5.34755555 41.52888889 9.89866667 66.1048889 15.58755555-21.04888889 9.216-39.48088889 10.46755556-56.09244445 1.13777778-14.56355555 4.66488889-28.10311111 20.9351111-29.01333333 18.77333333-1.024 18.20444445 14.79111111 19.456 28.33066666 1.59288889 16.72533333-5.12 35.15733333 11.60533334 58.02666667 13.08444445-31.51644445 9.55733333-57.23022222 5.46133333-81.69244445-2.95822222-17.74933333-17.63555555-33.45066667-35.95377777-23.66577777-34.01955555 18.09066667-66.21866667-9.32977778-101.48977778 3.86844444v72.704C59.392 708.26666667 36.63644445 616.33422222 28.89955555 517.68888889c21.95911111-3.072 39.48088889-1.25155555 48.24177778 18.77333333 13.08444445 29.92355555-21.27644445 34.58844445-40.39111111 63.14666667 43.46311111-6.25777778 63.37422222-19.91111111 62.00888889-53.47555556-1.59288889-41.87022222-28.21688889-52.90666667-69.40444444-45.85244444 6.82666667-173.056 80.55466667-309.81688889 224.71111111-400.95288889 129.82044445-82.03377778 272.49777778-97.84888889 419.27111111-42.78044445 3.41333333 1.25155555 5.46133333 5.91644445 8.07822222 9.10222223-44.82844445 26.39644445-12.85688889 58.93688889-10.46755556 89.088 15.01866667-29.35466667 8.07822222-60.30222222 8.98844445-90.68088889C779.37777778 81.92 922.73777778 214.12977778 933.20533333 297.75644445c-21.04888889-31.17511111-53.36177778-11.60533333-84.08177778-20.0248889 8.87466667 34.01955555-7.96444445 68.15288889 11.94666667 101.60355556 17.18044445-17.18044445 8.53333333-34.47466667 10.01244445-49.94844444 1.59288889-15.92888889 3.64088889-32.08533333 23.09688888-31.63022222 17.86311111 0.45511111 16.27022222 16.95288889 17.52177778 30.1511111 1.59288889 16.27022222-5.91644445 34.816 11.49155556 53.70311112 15.70133333-31.06133333 3.75466667-59.16444445 8.53333333-85.44711112 12.51555555-7.05422222 13.53955555 5.12 16.04266667 10.92266667 58.93688889 133.91644445 58.59555555 267.94666667-0.91022222 401.74933333-8.64711111 19.56977778-9.44355555 19.22844445-58.93688889 38.912-11.264-21.95911111-27.19288889-36.40888889-57.79911111-24.34844444 37.77422222 2.84444445 23.66577778 61.55377778 75.776 55.18222222-56.09244445 84.53688889-125.15555555 142.90488889-217.88444445 168.96-87.15377778 24.46222222-174.53511111 52.90666667-267.60533333 31.17511112-10.35377778-2.38933333-19.22844445-3.64088889-23.552-14.10844445 31.17511111 5.91644445 60.64355555-13.53955555 91.81866666-4.89244445-32.88177778-35.72622222-62.12266667-19.79733333-90.5671111 6.37155556zM125.952 249.96977778c-12.40177778 19.79733333-5.91644445 28.89955555 2.84444445 37.66044444 63.71555555 63.60177778 127.08977778 127.54488889 191.37422222 190.57777778 16.384 16.15644445 39.36711111 24.23466667 59.96088888 13.65333333 27.07911111-13.99466667 41.52888889-2.27555555 59.27822223 15.58755556 104.33422222 105.472 209.35111111 210.37511111 314.82311111 314.82311111 35.27111111 34.92977778 67.47022222 35.49866667 87.83644444 4.32355555 21.04888889-32.19911111-0.22755555-53.248-20.48-73.61422222-101.14844445-101.60355555-202.41066667-203.20711111-304.35555555-304.01422222-21.61777778-21.39022222-42.43911111-38.68444445-25.37244445-74.52444444 8.64711111-18.09066667-0.34133333-39.48088889-15.58755555-54.84088889-50.97244445-51.31377778-101.71733333-102.96888889-153.37244445-153.6-18.31822222-17.86311111-32.99555555-41.30133333-59.84711111-49.83466667-4.66488889 5.91644445-11.15022222 11.49155555-10.24 13.312 33.67822222 66.44622222 101.83111111 102.62755555 144.04266667 162.58844444-11.71911111 15.24622222-23.77955555 30.37866667-45.16977778 41.5288889-26.28266667-27.19288889-51.08622222-56.88888889-79.98577778-81.69244445-25.82755555-22.18666667-41.52888889-61.32622222-85.67466666-58.02666667 37.54666667 65.536 100.92088889 107.40622222 146.31822222 168.39111112-18.09066667 9.67111111-24.34844445 29.696-43.57688889 34.01955555-6.71288889 6.144-13.53955555 12.288-20.25244445 18.432-47.21777778-54.49955555-94.32177778-108.99911111-142.56355555-164.75022222z m459.09333333 481.39377777c-18.65955555-14.22222222-38.22933333-23.89333333-43.69066666-45.5111111-16.49777778 8.76088889-3.29955555 30.49244445-27.98933334 33.2231111-29.01333333 3.29955555-16.72533333-27.98933333-37.54666666-33.33688888-18.432 41.30133333-8.41955555 81.92 2.50311111 120.14933333 4.43733333 15.47377778 26.05511111 16.384 43.12177777 5.57511111-32.08533333-24.34844445-32.08533333-24.34844445-26.28266666-73.27288889 9.32977778 0 19.11466667-0.45511111 28.672 0.34133333 2.38933333 0.22755555 4.32355555 4.43733333 6.48533333 6.94044445 1.47911111 74.752 4.43733333 78.50666667 65.87733333 56.20622222-41.87022222 0.68266667-45.28355555-16.384-46.5351111-40.27733333-1.47911111-26.28266667 17.52177778-22.30044445 35.38488888-30.03733334z m-151.43822222 94.43555556V683.46311111c-23.21066667 17.63555555-2.38933333 41.52888889-18.54577778 52.224h-51.76888888c-8.07822222-15.92888889 4.55111111-37.20533333-17.63555556-52.56533333V822.61333333c25.48622222-21.16266667 4.55111111-47.104 20.70755556-64.05688888 17.52177778 0.22755555 35.49866667-5.46133333 51.99644444 3.5271111 6.144 18.54577778-4.43733333 39.59466667 15.24622222 63.71555556z m447.37422222-292.63644444c3.072 28.78577778 5.46133333 63.26044445 46.08 62.80533333 40.27733333-0.45511111 44.37333333-34.24711111 44.25955556-65.536-0.11377778-29.696-5.57511111-60.87111111-42.66666667-62.12266667-41.07377778-1.47911111-44.71466667 31.85777778-47.67288889 64.85333334zM540.55822222 324.15288889c1.25155555 31.744 16.04266667 51.08622222 48.35555556 51.88266666 31.744 0.79644445 50.40355555-15.70133333 51.31377777-47.67288888 0.91022222-31.63022222-15.70133333-50.28977778-47.78666666-51.42755556-31.744-1.024-48.69688889 16.27022222-51.88266667 47.21777778z m-11.03644444-164.97777778c26.39644445-72.59022222 15.70133333-87.83644445-70.54222223-101.03466666 7.05422222 32.768-7.28177778 66.56 15.58755556 97.7351111 6.37155555-18.54577778 5.80266667-37.20533333 6.59911111-55.86488888 0.56888889-12.85688889 7.62311111-22.86933333 21.27644445-22.75555556 15.01866667 0.22755555 16.72533333 12.40177778 18.20444444 24.576 2.27555555 17.97688889-6.144 38.11555555 8.87466667 57.344z m39.82222222-108.08888889c-21.504 85.90222222-12.74311111 97.28 72.13511111 98.75911111-5.57511111-30.83377778 8.87466667-63.82933333-11.03644444-96.59733333-16.15644445 19.456-7.168 38.34311111-9.55733334 55.52355555-2.048 14.90488889-7.62311111 27.19288889-23.89333333 25.94133334-14.56355555-1.13777778-14.90488889-14.67733333-16.49777778-26.624-2.16177778-17.29422222 7.168-36.18133333-11.15022222-57.00266667z m85.78844445 337.69244445c22.18666667-28.78577778 13.65333333-47.67288889 15.92888888-64.96711112 1.93422222-14.90488889 7.39555555-26.96533333 23.66577778-25.94133333 14.56355555 0.91022222 15.01866667 14.22222222 16.83911111 26.16888889 2.61688889 17.52177778-8.07822222 38.22933333 18.54577778 63.14666667-0.11377778-39.25333333 8.76088889-68.26666667-5.91644445-95.232-17.52177778-32.31288889-48.58311111 0.91022222-69.0631111-14.44977778v111.27466667zM632.03555555 728.17777778c-18.432 5.12-24.80355555-19.56977778-42.09777777-3.41333333 5.00622222 42.66666667-5.00622222 88.064 6.48533333 138.24 21.95911111-17.63555555 9.10222222-38.34311111 17.29422222-52.7928889 50.28977778 12.51555555 63.03288889 3.52711111 53.93066667-46.64888888-10.69511111 20.93511111-20.36622222 44.82844445-42.66666667 29.696-27.19288889-18.432-11.94666667-40.16355555 7.05422222-65.08088889zM339.28533333 566.272c-21.504-20.93511111-13.76711111-56.88888889-52.11022222-74.52444445 13.76711111 36.52266667 23.09688889 65.30844445 35.49866667 92.61511112 8.192 18.09066667 27.648 19.79733333 32.65422222 1.93422222 5.12-17.86311111 24.46222222-35.04355555 13.88088889-57.344-22.30044445 3.29955555-15.24622222 25.03111111-29.92355556 37.31911111z m79.98577778-28.78577778c-13.08444445 4.66488889-29.12711111 10.12622222-28.10311111 31.17511111 1.024 19.79733333 13.65333333 29.92355555 32.768 27.648 17.86311111-2.16177778 29.92355555-11.49155555 27.53422222-32.768-1.93422222-17.97688889-11.71911111-25.71377778-32.19911111-26.05511111z m-149.39022222 75.20711111c-12.06044445-48.01422222-16.72533333-95.80088889-1.024-144.04266666-40.96 48.24177778-32.31288889 96.48355555 1.024 144.04266666z m34.92977778 204.11733334c3.29955555 0 6.71288889-0.11377778 10.01244444-0.11377778V678.11555555c-3.29955555 0-6.71288889 0.11377778-10.01244444 0.11377778v138.58133334z m505.74222222-301.16977778c-36.52266667-7.96444445-73.27288889-13.76711111-108.65777778 1.82044444 36.52266667 11.37777778 72.704 13.42577778 108.65777778-1.82044444z m-0.22755556 41.07377778c-36.40888889-9.32977778-72.704-13.42577778-108.544 0.22755555 36.29511111 12.85688889 72.47644445 11.71911111 108.544-0.22755555z m2.16177778-181.02044445c8.30577778-33.22311111 15.36-66.67377778-3.98222222-98.41777777-5.34755555 32.99555555-12.51555555 65.87733333 3.98222222 98.41777777z m-696.32 122.19733333c-5.91644445 33.22311111-13.08444445 66.67377778 3.52711111 106.26844445 14.44977778-52.45155555 14.10844445-73.728-3.52711111-106.26844445z m408.68977778-124.47288888c4.66488889-31.744 11.15022222-64.73955555-4.20977778-96.256-17.06666667 32.19911111-5.91644445 63.82933333 4.20977778 96.256zM379.79022222 110.25066667h-85.67466667c33.67822222 21.39022222 59.392 17.06666667 85.67466667 0z" fill="currentColor" p-id="5284"></path><path d="M901.46133333 531.79733333c1.25155555-19.11466667 0.68266667-42.66666667 23.89333334-43.12177778 27.30666667-0.56888889 25.94133333 24.80355555 26.16888888 44.37333334 0.22755555 18.31822222-0.34133333 41.75644445-23.43822222 42.32533333-27.53422222 0.68266667-24.80355555-25.03111111-26.624-43.57688889zM588.45866667 296.73244445c19.56977778 0.79644445 31.51644445 10.12622222 31.63022222 30.1511111 0.11377778 17.29422222-9.89866667 27.76177778-27.19288889 29.01333334-17.29422222 1.25155555-28.89955555-7.62311111-31.28888889-24.68977778-2.50311111-19.456 7.50933333-31.06133333 26.85155556-34.47466666z" fill="currentColor" p-id="5285"></path></svg>
